# xmcd
#
# Track frame offsets:
#	150
#	14350
#	34400
#	48861
#	66049
#	82076
#	97428
#	107668
#	122813
#	142161
#	156901
#	172469
#	184419
#	199222
#	212576
#
# Disc length: 3038 seconds
#
# Revision: 0
# Processed by: cddbd v1.5.2PL0 Copyright (c) Steve Scherf et al.
# Submitted via: EasyCDDAExtractor 12.0.4.1
#
DISCID=ec0bdc0f
DTITLE=Various Artist - Glory Train Records Vol 77
DYEAR=1900
DGENRE=Indie Country
TTITLE0=David Nail - You Catch me When I Fall (Glory Train #77)
TTITLE1=Marty Rivers - The Lord is Comin' Soon (Glory Train #77)
TTITLE2=The Morris brothers - Cry,Cry, For America (Glory Train #77)
TTITLE3=Jo-el Curtis - Rock of Ages (Glory Train #77)
TTITLE4=Steve Free - The Storm Passes By (Glory Train #77)
TTITLE5=The Durst Brothers - Elijah  (Glory Train #77)
TTITLE6=Karen Cruise - When I Get To Heaven (Glory Train #77)
TTITLE7=Mel Berg - Did i Make A Difference (Glory Train #77)
TTITLE8=Heirs of Salvation - I Must Be About my fathers Business (Glory Train 
TTITLE8=#77)
TTITLE9=Wyvette Prince Davis - Let Everything With Breath (Glory Train #77)
TTITLE10=Vicky Atwood - Everyday Jesus (Glory Train #77)
TTITLE11=ShyAnne Mailen - Let Glory Ring (Glory Train #77)
TTITLE12=Slim and Zella Mae Cox - Pretty Wreath For Mothers Grave (Glory Train #
TTITLE12=77)
TTITLE13=Ron Thompson - Written Down in Blood (Glory Train #77)
TTITLE14=Robert Shields - If You Had The Wings of An Angel (Glory Train #77)
EXTD=
EXTT0=
EXTT1=
EXTT2=
EXTT3=
EXTT4=
EXTT5=
EXTT6=
EXTT7=
EXTT8=
EXTT9=
EXTT10=
EXTT11=
EXTT12=
EXTT13=
EXTT14=
PLAYORDER=
